<?xml version="1.0" standalone="no"?>
<!DOCTYPE svg PUBLIC "-//W3C//DTD SVG 20010904//EN"
 "http://www.w3.org/TR/2001/REC-SVG-20010904/DTD/svg10.dtd">
<svg version="1.0" xmlns="http://www.w3.org/2000/svg"
 width="1366.000000pt" height="768.000000pt" viewBox="0 0 1366.000000 768.000000"
 preserveAspectRatio="xMidYMid meet">
<metadata>
Created by potrace 1.11, written by Peter Selinger 2001-2013
</metadata>
<g transform="translate(0.000000,768.000000) scale(0.100000,-0.100000)"
fill="#000000" stroke="none">
<path d="M0 3840 l0 -3840 6830 0 6830 0 0 3840 0 3840 -6830 0 -6830 0 0
-3840z m9183 3355 c77 -132 190 -329 253 -438 l115 -199 -166 -285 c-91 -157
-165 -287 -165 -289 0 -2 267 -4 593 -4 l592 0 82 -143 c44 -78 123 -214 174
-302 50 -88 131 -227 179 -310 47 -82 141 -246 209 -363 l123 -212 -83 -143
c-45 -78 -130 -223 -187 -322 -57 -99 -121 -209 -142 -245 -21 -36 -61 -105
-89 -153 -28 -48 -51 -90 -51 -92 0 -3 137 -5 304 -5 l305 0 54 -92 c30 -51
88 -151 129 -223 41 -71 101 -175 133 -230 32 -55 89 -153 126 -219 38 -65 69
-119 69 -121 0 -2 -50 -90 -112 -197 -61 -106 -175 -303 -253 -438 l-141 -245
-515 -2 -514 -3 -49 88 c-27 48 -79 139 -116 202 -201 345 -340 589 -340 595
0 3 65 119 145 256 80 138 145 253 145 255 0 2 -252 4 -559 4 l-560 0 -54 93
c-29 50 -106 182 -169 292 -64 110 -183 315 -264 455 -81 140 -178 308 -216
374 l-67 118 96 167 c53 91 127 218 164 281 70 122 240 416 295 512 l32 57
-124 3 c-68 2 -124 1 -124 -2 0 -3 -95 -3 -212 0 l-211 5 -47 80 c-25 44 -79
136 -119 205 -41 69 -82 141 -93 160 -11 19 -31 53 -43 75 -13 22 -64 111
-115 198 -50 87 -90 164 -88 171 2 7 115 208 253 445 l250 431 514 -2 515 -3
139 -240z m-4438 -615 c-4 -7 180 -10 544 -10 l550 0 17 -32 c15 -30 103 -183
188 -328 18 -30 70 -120 116 -200 126 -219 219 -379 253 -437 l31 -53 306 0
c280 0 306 -1 316 -17 6 -10 23 -40 39 -68 30 -56 178 -310 297 -513 43 -73
78 -135 78 -136 0 -2 49 -87 109 -190 l109 -188 -89 -151 -89 -152 368 -3 367
-3 121 -212 c67 -117 221 -383 342 -592 121 -209 267 -461 324 -560 l104 -180
-31 -55 c-18 -30 -94 -163 -171 -295 -274 -475 -362 -626 -524 -908 l-165
-286 -898 -3 -897 -3 -81 140 c-45 77 -93 160 -107 185 -14 25 -165 286 -335
580 -171 294 -325 560 -342 590 l-31 56 26 44 c105 178 400 689 400 694 0 3
-48 7 -107 8 l-107 3 -38 65 c-21 36 -99 172 -174 303 l-136 237 -145 0 -144
0 32 -57 c47 -84 244 -424 299 -518 26 -44 58 -101 73 -126 l26 -46 -78 -134
c-42 -74 -130 -226 -196 -339 -65 -113 -157 -272 -205 -355 -47 -82 -120 -208
-162 -280 -100 -173 -175 -303 -266 -460 -41 -71 -99 -172 -129 -222 l-54 -93
-1084 0 -1085 0 -23 38 c-24 37 -90 150 -275 472 -52 91 -141 244 -197 340
-500 858 -597 1034 -586 1052 6 10 54 93 107 186 53 92 120 208 149 257 209
359 535 925 535 930 0 3 -105 5 -232 5 l-233 0 -250 432 c-137 237 -251 437
-253 444 -3 11 161 302 405 717 34 60 63 111 63 114 0 3 9 18 21 34 l20 29
509 0 508 0 25 -42 c13 -24 128 -223 256 -444 l231 -401 -110 -191 c-60 -105
-110 -196 -110 -202 0 -7 130 -10 385 -10 223 0 385 4 385 9 0 5 -22 47 -50
94 -27 47 -50 90 -50 97 0 12 161 296 395 695 32 55 72 124 88 153 l29 52
-100 0 c-86 0 -101 2 -107 18 -5 14 -4 15 6 5 9 -9 46 -13 110 -13 l97 0 48
83 c26 45 81 139 122 210 l74 127 213 0 c132 0 216 4 220 10 3 6 8 10 11 10 3
0 2 -4 -1 -10z"/>
<path d="M7862 7153 c-88 -153 -201 -349 -251 -436 l-92 -158 128 -220 c70
-121 140 -241 154 -267 15 -26 70 -121 122 -212 l96 -165 197 -3 c184 -2 196
-1 190 15 -6 17 -5 17 8 0 12 -16 29 -17 152 -15 l138 3 81 140 80 140 170 5
169 5 163 280 c89 154 163 285 163 292 0 6 -66 125 -146 265 -80 139 -192 333
-248 430 l-101 178 -507 0 -506 0 -160 -277z"/>
<path d="M8822 5858 c-33 -57 -67 -118 -76 -135 l-17 -33 153 0 153 0 47 83
c26 45 61 106 78 135 l30 52 -154 0 -154 0 -60 -102z"/>
<path d="M9120 5815 l-85 -145 -161 0 -160 0 -169 -292 c-93 -161 -196 -340
-230 -398 -34 -58 -73 -125 -87 -150 -14 -25 -42 -74 -62 -108 -20 -35 -36
-68 -36 -72 0 -7 27 -54 215 -380 43 -74 127 -218 185 -320 59 -102 140 -241
180 -310 39 -69 94 -164 122 -212 l49 -88 562 0 562 0 92 158 c50 86 95 165
98 174 6 16 28 18 203 20 l196 3 61 105 c34 58 99 170 145 250 46 80 129 224
185 320 56 96 115 200 132 230 l31 55 -83 140 c-71 122 -305 526 -543 940 -41
72 -88 151 -105 178 l-29 47 -592 0 -591 0 -85 -145z"/>
<path d="M10118 3510 l-97 -170 186 2 185 3 90 155 c50 85 92 161 95 168 4 9
-35 12 -178 12 l-184 -1 -97 -169z"/>
<path d="M10597 3658 c-41 -66 -177 -305 -182 -320 -6 -16 -28 -18 -208 -20
l-201 -3 -148 -254 -147 -255 32 -56 c18 -32 131 -229 252 -438 l220 -381 505
0 505 0 100 175 c106 186 108 190 285 494 62 107 113 200 113 205 0 9 -125
227 -418 730 l-81 140 -307 3 -306 2 -14 -22z"/>
<path d="M4201 6356 c-61 -106 -111 -197 -111 -200 0 -4 92 -5 204 -4 112 2
202 0 199 -4 -2 -5 -96 -8 -208 -8 l-205 0 -23 -37 c-13 -21 -77 -130 -142
-243 -225 -390 -323 -559 -341 -588 l-17 -30 54 -93 c29 -52 58 -97 64 -101 5
-4 190 -8 410 -8 l401 0 37 -67 c21 -38 55 -97 76 -133 38 -66 142 -245 246
-425 32 -55 92 -158 133 -230 42 -71 92 -158 111 -192 l36 -63 143 0 c78 0
142 2 142 4 0 2 -56 100 -123 218 -68 117 -129 223 -136 236 -11 20 -6 32 39
108 27 47 50 87 50 89 0 2 34 60 75 130 41 69 75 128 75 130 0 1 34 60 75 130
41 69 75 128 75 130 0 3 16 29 35 59 19 30 35 57 35 59 0 4 75 137 121 212 13
23 29 50 35 60 11 19 25 20 332 23 l321 2 -91 158 c-50 86 -155 267 -233 402
-78 135 -170 296 -206 357 l-64 113 -756 0 -756 0 -112 -194z"/>
<path d="M1563 6308 c-9 -12 -149 -251 -419 -719 l-85 -146 112 -194 c171
-297 280 -485 339 -587 l54 -92 235 2 235 3 29 50 c16 28 77 132 134 232 l105
183 271 2 272 3 116 199 116 199 -253 436 -253 436 -499 3 c-392 2 -502 -1
-509 -10z"/>
<path d="M5759 5453 c-31 -57 -237 -416 -302 -526 -26 -43 -47 -80 -47 -82 0
-2 -34 -61 -75 -130 -41 -70 -75 -128 -75 -130 0 -2 -23 -42 -51 -90 l-51 -86
68 -117 c37 -64 99 -172 137 -240 l71 -122 195 2 195 3 81 140 c103 177 277
477 385 665 46 80 130 225 187 322 l103 178 -73 127 -73 128 -324 3 -325 2
-26 -47z"/>
<path d="M6460 5495 c0 -4 32 -60 70 -125 39 -65 70 -122 70 -127 0 -8 -19
-42 -283 -498 -98 -170 -222 -384 -274 -475 -53 -91 -121 -209 -152 -262 l-56
-97 -193 -3 -192 -3 101 -175 c55 -96 111 -194 124 -217 13 -23 43 -75 67
-117 l43 -76 111 0 110 0 176 303 c97 166 198 341 224 389 l49 88 522 0 522 0
27 48 c15 26 56 95 90 154 l62 107 -60 103 c-153 264 -212 365 -228 393 -68
119 -153 267 -210 365 -37 63 -81 140 -98 170 l-31 55 -295 3 c-163 1 -296 0
-296 -3z"/>
<path d="M2322 5008 c-11 -14 -252 -429 -252 -434 0 -2 114 -4 253 -4 l252 1
98 172 c53 94 111 196 127 225 l30 52 -249 0 c-187 0 -251 -3 -259 -12z"/>
<path d="M2836 4997 c-9 -12 -69 -115 -134 -227 l-119 -205 -262 -5 -263 -5
-107 -185 c-111 -191 -255 -441 -356 -615 -162 -279 -214 -370 -276 -477 l-67
-116 78 -134 c43 -73 187 -322 320 -553 133 -231 259 -449 280 -485 21 -36 70
-121 110 -190 40 -69 94 -161 119 -205 26 -44 74 -126 106 -182 l60 -103 1070
0 1070 0 29 53 c29 51 71 125 278 482 57 99 142 245 188 325 46 80 95 165 110
190 15 25 125 215 245 423 l218 378 -18 33 c-10 19 -107 186 -215 372 l-196
339 -402 5 -401 5 -102 175 c-55 96 -118 204 -139 240 -55 94 -328 565 -365
630 l-31 55 -407 3 -406 2 -15 -23z m732 -1649 c10 -18 55 -96 100 -173 44
-77 150 -261 235 -408 l155 -269 -67 -116 c-79 -135 -178 -307 -316 -547 -54
-93 -106 -182 -117 -197 l-19 -28 -504 0 -504 0 -19 28 c-11 15 -40 63 -65
107 -25 44 -133 232 -240 417 l-194 337 189 328 c105 180 219 379 255 441 l65
112 513 0 513 0 20 -32z"/>
<path d="M2492 3303 c-165 -287 -249 -432 -339 -585 -57 -98 -108 -188 -114
-201 -9 -20 -2 -38 54 -132 35 -61 100 -173 144 -250 45 -77 128 -221 185
-320 l105 -180 507 -3 506 -2 26 42 c14 24 86 149 161 278 74 129 175 304 224
389 49 84 89 156 89 160 0 3 -112 200 -249 436 l-248 430 -506 3 -506 2 -39
-67z"/>
<path d="M3690 5016 c0 -4 44 -82 327 -571 80 -137 179 -310 221 -382 l77
-133 388 0 389 0 -20 33 c-11 17 -54 91 -95 162 -41 72 -134 234 -208 360 -73
127 -171 298 -219 380 l-87 150 -386 3 c-213 1 -387 0 -387 -2z"/>
<path d="M6459 4053 c-40 -69 -261 -452 -336 -581 -46 -79 -83 -145 -83 -148
0 -2 227 -3 506 -2 l505 3 116 200 c262 454 313 543 313 549 0 3 -226 6 -503
6 l-503 0 -15 -27z"/>
<path d="M7502 4068 c-5 -7 -54 -89 -108 -183 -54 -93 -129 -224 -167 -290
-39 -66 -93 -159 -120 -207 l-51 -88 -516 0 -516 0 -94 -162 c-52 -90 -148
-255 -214 -368 -65 -113 -119 -209 -119 -215 0 -5 94 -172 208 -370 115 -198
254 -439 310 -535 55 -96 159 -275 230 -397 l129 -223 881 0 882 0 178 308
c98 169 226 390 285 492 59 102 176 304 260 450 84 145 153 269 153 275 0 5
-31 64 -70 130 -38 66 -163 282 -278 480 -114 198 -267 461 -339 585 -71 124
-143 249 -159 278 l-29 52 -363 0 c-278 0 -365 -3 -373 -12z"/>
</g>
</svg>
