<?xml version="1.0" standalone="no"?>
<!DOCTYPE svg PUBLIC "-//W3C//DTD SVG 20010904//EN"
 "http://www.w3.org/TR/2001/REC-SVG-20010904/DTD/svg10.dtd">
<svg version="1.0" xmlns="http://www.w3.org/2000/svg"
 width="1920.000000pt" height="1080.000000pt" viewBox="0 0 1920.000000 1080.000000"
 preserveAspectRatio="xMidYMid meet">
<metadata>
Created by potrace 1.11, written by Peter Selinger 2001-2013
</metadata>
<g transform="translate(0.000000,1080.000000) scale(0.100000,-0.100000)"
fill="#000000" stroke="none">
<path d="M0 5400 l0 -5400 9600 0 9600 0 0 5400 0 5400 -9600 0 -9600 0 0
-5400z m12835 4844 c156 -272 270 -468 340 -589 71 -122 204 -352 228 -396
l21 -36 -26 -44 c-69 -120 -148 -257 -286 -496 -84 -144 -152 -264 -152 -267
0 -3 375 -6 833 -6 l832 0 40 -72 c22 -39 56 -99 76 -132 19 -34 73 -126 119
-206 122 -213 207 -359 292 -505 42 -71 86 -148 98 -170 28 -51 303 -525 388
-670 l64 -110 -24 -45 c-13 -25 -68 -120 -121 -212 -124 -214 -262 -453 -397
-688 -59 -102 -135 -233 -169 -291 -33 -59 -61 -110 -61 -113 0 -3 192 -6 428
-6 l427 0 59 -103 c109 -190 264 -458 388 -672 41 -71 120 -206 174 -300 l98
-169 -35 -62 c-19 -34 -180 -314 -359 -623 l-324 -561 -721 0 -720 0 -41 73
c-22 39 -183 319 -357 620 -285 491 -316 550 -306 570 7 12 97 169 201 350
104 180 191 334 194 342 5 13 -88 15 -782 15 l-789 0 -90 158 c-49 86 -99 173
-111 192 -12 19 -57 98 -102 175 -44 77 -136 237 -205 355 -68 118 -185 321
-260 450 -74 129 -174 302 -221 384 -47 82 -86 153 -86 158 0 5 32 64 71 131
39 67 88 151 109 187 21 36 107 184 191 330 147 255 189 329 367 636 45 77 82
144 82 147 0 4 -79 7 -175 7 -96 0 -175 -2 -175 -5 0 -3 20 -41 45 -84 25 -43
45 -81 45 -84 0 -4 -89 -161 -198 -350 -109 -188 -209 -361 -222 -384 l-24
-43 -450 0 -451 0 -220 382 c-121 209 -222 385 -223 390 -2 5 96 182 219 393
l223 385 153 0 c84 0 153 4 153 8 0 5 -81 149 -180 321 -161 278 -179 314
-169 334 24 46 692 1203 702 1215 7 9 164 12 726 12 l716 0 130 -226z m-6507
-75 c13 -20 79 -134 313 -540 65 -114 119 -210 119 -214 0 -3 -22 -44 -50 -91
l-50 -84 773 0 772 0 40 -72 c22 -39 56 -99 76 -132 19 -34 69 -119 110 -191
42 -71 152 -263 246 -425 94 -162 217 -376 275 -475 l103 -180 434 -5 433 -5
205 -355 c113 -195 266 -461 341 -590 74 -129 169 -293 210 -365 41 -71 90
-156 108 -188 l33 -58 -56 -97 c-31 -53 -87 -150 -124 -214 l-67 -118 512 0
513 0 108 -187 c60 -104 145 -251 190 -328 45 -77 128 -221 185 -320 57 -99
174 -301 260 -450 86 -148 228 -394 315 -545 87 -151 168 -291 180 -310 l23
-36 -75 -129 c-41 -72 -118 -204 -171 -295 -52 -91 -137 -237 -187 -325 -51
-88 -133 -230 -182 -315 -207 -357 -254 -438 -410 -710 -91 -157 -181 -313
-201 -347 l-37 -63 -1257 0 -1258 0 -20 37 c-11 21 -63 110 -114 198 -51 88
-127 219 -168 290 -41 72 -117 202 -168 290 -51 88 -135 232 -185 320 -51 88
-134 232 -185 320 -51 88 -134 232 -185 320 -51 88 -124 215 -163 283 l-71
122 93 163 c165 287 456 791 486 839 11 18 20 36 20 41 0 4 -67 7 -149 7
l-148 0 -123 213 c-68 116 -153 264 -190 327 -37 63 -93 161 -126 217 l-59
103 -203 0 -204 0 22 -37 c21 -36 102 -174 275 -473 40 -69 107 -186 150 -260
43 -74 97 -168 120 -209 l42 -74 -90 -156 c-49 -86 -122 -212 -162 -281 -40
-69 -98 -170 -130 -225 -32 -55 -99 -172 -150 -260 -51 -88 -118 -205 -150
-260 -32 -55 -89 -152 -125 -215 -37 -63 -102 -176 -145 -250 -43 -74 -111
-192 -152 -262 -91 -159 -200 -348 -300 -520 -42 -73 -87 -152 -100 -175 l-25
-43 -1527 0 -1528 0 -45 78 c-111 190 -196 336 -343 592 -87 151 -172 298
-188 325 -17 28 -72 122 -122 210 -51 88 -117 204 -148 258 -32 53 -82 141
-114 195 -31 53 -97 169 -148 257 -51 88 -118 205 -150 260 -32 55 -90 156
-130 225 -40 69 -87 150 -105 180 -18 30 -33 60 -33 65 0 11 79 152 330 583
31 53 73 126 93 162 20 36 96 166 167 290 175 302 255 440 345 595 41 72 101
174 132 227 31 54 56 100 56 103 0 3 -147 5 -327 5 l-328 1 -61 107 c-33 59
-195 338 -358 621 l-297 514 135 236 c75 130 236 409 359 621 l222 385 720 2
720 3 130 -226 c162 -281 221 -384 317 -549 41 -71 119 -206 173 -299 l98
-170 -24 -45 c-23 -43 -90 -158 -233 -403 -31 -53 -56 -102 -56 -107 0 -8 170
-11 546 -11 463 0 545 2 541 14 -3 8 -37 69 -76 136 -39 67 -71 126 -71 130 0
7 48 92 235 415 172 298 261 451 371 643 l123 212 -142 0 -142 0 -220 382
c-121 209 -221 385 -223 389 -2 5 41 86 96 181 259 449 312 539 328 567 l18
31 451 0 c444 0 450 0 463 -21z m9747 -939 l131 0 69 -117 c39 -65 72 -122 74
-128 2 -5 32 -57 66 -115 101 -172 235 -408 235 -414 0 -3 -89 -160 -198 -349
-109 -188 -209 -361 -222 -384 l-24 -43 -450 0 -451 0 -220 382 c-121 209
-221 385 -223 389 -2 5 41 86 96 181 259 449 312 539 328 567 l18 31 314 0
c248 0 312 3 306 13 -6 10 -4 10 7 0 9 -9 53 -13 144 -13z"/>
<path d="M11249 10402 c-14 -26 -60 -105 -101 -177 -41 -71 -183 -317 -315
-545 -132 -228 -245 -425 -251 -437 -10 -19 -5 -33 39 -110 143 -246 208 -357
260 -448 l57 -100 285 -3 284 -2 168 -290 167 -290 193 0 193 0 74 128 c41 70
94 162 119 204 l44 78 235 0 235 1 225 390 c124 215 229 399 234 409 6 14 -15
58 -87 181 -159 273 -326 561 -472 816 l-140 243 -710 0 -710 0 -26 -48z"/>
<path d="M10590 8533 c-26 -44 -245 -422 -349 -602 l-71 -124 113 -196 c62
-108 162 -280 222 -383 l108 -188 442 0 442 0 216 374 c120 206 219 380 222
388 2 7 -17 49 -44 93 l-48 80 -289 3 -289 3 -170 294 -170 295 -156 0 -157 0
-22 -37z"/>
<path d="M10978 8518 c17 -29 48 -83 69 -120 21 -36 81 -141 133 -232 l95
-166 277 0 277 0 -39 68 c-21 37 -94 164 -163 282 l-125 215 -277 3 -277 2 30
-52z"/>
<path d="M12377 8195 c-59 -101 -107 -187 -107 -190 0 -3 96 -5 213 -5 l214 0
106 185 c59 102 107 187 107 190 0 3 -96 5 -213 5 l-213 0 -107 -185z"/>
<path d="M12922 8353 c-10 -16 -63 -106 -117 -200 l-99 -173 -227 0 -226 0
-86 -147 c-47 -82 -160 -277 -251 -435 -91 -159 -240 -416 -331 -572 l-164
-285 48 -83 c65 -113 493 -855 834 -1443 38 -66 94 -164 125 -217 l56 -98 790
0 791 0 140 243 140 242 272 5 273 5 78 135 c43 74 166 286 272 470 106 184
246 426 311 538 l118 203 -28 47 c-16 26 -115 198 -221 382 -106 184 -223 387
-260 450 -37 63 -177 305 -311 537 l-244 423 -832 0 -832 0 -19 -27z m2081
-1255 c57 -101 155 -270 216 -376 62 -106 114 -199 117 -206 3 -8 -84 -168
-194 -357 -109 -189 -209 -363 -222 -386 l-24 -43 -450 0 -451 0 -220 382
c-121 209 -221 385 -223 389 -3 8 27 63 313 557 l129 222 452 0 452 0 105
-182z"/>
<path d="M13980 7233 c-26 -44 -245 -422 -349 -602 l-71 -124 122 -211 c67
-116 166 -289 221 -383 l99 -173 443 0 442 0 218 378 c120 207 220 380 222
384 2 4 -27 61 -65 125 -38 65 -113 195 -167 288 -54 94 -122 212 -152 263
l-54 92 -444 0 -443 0 -22 -37z"/>
<path d="M14346 5148 c-7 -13 -46 -79 -86 -148 -40 -69 -95 -162 -121 -208
-27 -45 -49 -84 -49 -87 0 -3 116 -5 258 -5 l257 0 130 226 c72 123 132 229
133 234 2 6 -94 10 -252 10 -254 0 -256 0 -270 -22z"/>
<path d="M14892 5138 c-10 -18 -56 -98 -102 -178 -46 -80 -102 -176 -125 -215
l-41 -70 -279 -5 -279 -5 -113 -195 c-62 -107 -156 -270 -208 -361 l-96 -166
52 -89 c109 -187 204 -352 254 -439 140 -242 239 -413 316 -547 l84 -148 711
0 711 0 351 610 c194 335 352 612 352 616 0 5 -68 124 -229 399 -26 44 -144
248 -262 452 l-214 373 -432 0 -431 0 -20 -32z"/>
<path d="M5367 10088 c-30 -51 -88 -151 -129 -223 -42 -71 -117 -201 -167
-289 l-92 -158 123 -212 c67 -116 166 -289 221 -383 l99 -173 142 0 141 0 134
233 c74 127 150 260 170 294 l36 62 303 3 303 3 50 86 50 87 -112 193 c-62
107 -160 277 -219 379 l-107 185 -446 3 -446 2 -54 -92z"/>
<path d="M5992 9088 c-111 -194 -212 -370 -234 -405 l-20 -33 285 0 285 0 143
248 c78 136 151 262 162 280 l19 32 -285 0 -285 0 -70 -122z"/>
<path d="M6495 8953 c-81 -142 -155 -270 -164 -285 l-15 -28 -291 0 -291 0
-39 -67 c-21 -38 -86 -149 -143 -248 -108 -186 -188 -325 -332 -575 -46 -80
-114 -198 -152 -262 l-68 -117 80 -138 80 -138 571 -5 572 -5 55 -95 c30 -52
80 -138 110 -190 31 -52 86 -147 122 -210 37 -63 102 -176 145 -250 43 -74
110 -191 150 -260 40 -69 105 -181 145 -250 39 -69 94 -164 122 -212 l49 -88
205 0 204 0 -14 23 c-8 12 -95 163 -195 334 l-180 313 200 347 c111 192 237
411 282 488 44 77 102 176 127 220 26 44 102 176 170 293 l123 212 449 0 449
0 -32 58 c-32 56 -121 210 -249 432 -37 63 -177 305 -311 537 l-244 423 -771
0 -770 0 -149 -257z"/>
<path d="M2169 8832 c-14 -26 -60 -105 -101 -177 -41 -71 -183 -317 -315 -545
-132 -228 -245 -425 -251 -437 -12 -22 -7 -33 313 -583 92 -158 178 -307 296
-512 l84 -148 330 0 331 0 73 128 c41 70 86 147 101 172 62 104 189 326 195
343 7 16 35 17 390 17 l382 0 163 281 162 282 -23 41 c-21 39 -109 191 -208
361 -26 44 -144 248 -262 452 l-214 373 -710 0 -710 0 -26 -48z"/>
<path d="M8087 7648 c-30 -51 -139 -239 -242 -418 -103 -179 -222 -386 -265
-460 -43 -74 -134 -233 -204 -352 l-125 -218 186 -322 c102 -178 190 -329 195
-335 8 -10 77 -13 282 -13 l271 0 44 78 c25 42 74 129 111 192 37 63 120 207
185 320 65 113 148 257 185 320 37 63 103 178 147 255 45 77 151 260 236 407
l155 268 -99 172 c-55 94 -104 177 -110 185 -9 10 -96 13 -455 13 l-443 0 -54
-92z"/>
<path d="M9080 7731 c0 -7 100 -185 186 -330 l17 -30 -65 -113 c-36 -62 -78
-135 -93 -163 -16 -27 -56 -97 -90 -155 -34 -58 -99 -170 -145 -250 -110 -191
-213 -369 -260 -450 -21 -36 -88 -153 -150 -260 -122 -213 -172 -298 -235
-405 l-41 -70 -273 -3 c-212 -2 -272 -5 -268 -15 3 -6 111 -194 240 -417 l234
-405 152 0 152 0 136 235 c165 287 292 505 410 710 l90 155 730 3 c568 2 733
5 741 15 5 6 62 103 125 214 l116 203 -99 172 c-54 95 -254 441 -443 768
l-344 595 -411 3 c-234 1 -412 -2 -412 -7z"/>
<path d="M3252 7028 c-11 -18 -63 -109 -117 -203 -54 -93 -127 -219 -162 -278
-35 -60 -63 -111 -63 -113 0 -2 159 -4 354 -4 l353 0 174 302 c96 166 175 308
177 315 3 11 -62 13 -346 13 l-350 0 -20 -32z"/>
<path d="M3968 7003 c-19 -32 -103 -178 -188 -325 l-154 -268 -366 0 -365 0
-19 -33 c-10 -17 -60 -104 -111 -192 -50 -88 -117 -204 -148 -257 -79 -136
-157 -271 -245 -423 -41 -71 -131 -227 -199 -345 -69 -118 -161 -278 -206
-355 -44 -77 -109 -189 -144 -248 l-63 -108 186 -322 c102 -177 203 -351 224
-387 48 -82 152 -262 260 -450 95 -164 173 -300 315 -545 122 -210 207 -357
315 -545 46 -80 111 -192 145 -250 l61 -105 1504 0 1503 0 105 180 c57 99 140
243 185 320 44 77 110 192 147 255 37 63 104 180 150 260 46 80 98 170 116
200 18 30 106 183 197 340 90 157 190 330 222 385 32 55 90 156 130 225 139
241 228 395 241 415 12 18 -5 53 -177 350 -105 182 -227 393 -272 470 -44 77
-96 166 -115 198 l-35 57 -561 0 -561 0 -90 158 c-49 86 -99 173 -111 192 -12
19 -57 98 -102 175 -44 77 -145 253 -225 390 -80 138 -155 268 -167 290 -74
133 -186 323 -198 338 -14 16 -54 17 -583 17 l-568 0 -33 -57z m1073 -2341
c31 -53 91 -158 134 -232 43 -74 108 -187 145 -250 36 -63 137 -238 224 -389
l159 -273 -21 -42 c-12 -22 -59 -105 -104 -183 -46 -78 -198 -340 -338 -582
l-254 -441 -721 0 -720 1 -61 107 c-33 59 -194 338 -358 620 -265 459 -295
515 -285 535 25 47 692 1203 702 1215 7 9 165 12 726 12 l716 0 56 -98z"/>
<path d="M3547 4718 c-27 -43 -115 -193 -154 -263 -22 -38 -148 -257 -280
-485 -132 -228 -245 -425 -251 -437 -11 -19 10 -59 190 -370 254 -439 314
-543 419 -725 l84 -148 711 0 711 0 351 610 c194 335 352 612 352 616 0 5 -68
124 -229 399 -26 44 -144 248 -262 452 l-214 373 -707 0 -708 0 -13 -22z
m1566 -620 c58 -101 155 -270 216 -376 62 -106 114 -199 117 -206 3 -8 -84
-168 -194 -357 -109 -189 -209 -363 -222 -386 l-24 -43 -450 0 -451 0 -220
382 c-121 209 -221 385 -223 389 -3 8 27 62 313 557 l129 222 452 0 452 0 105
-182z"/>
<path d="M4017 4108 c-52 -90 -152 -261 -221 -381 l-127 -219 122 -211 c68
-117 167 -290 222 -384 l99 -173 443 0 442 0 218 378 c120 207 220 380 222
384 2 4 -27 61 -65 125 -38 65 -113 195 -167 288 -54 94 -122 212 -152 263
l-54 92 -444 0 -443 0 -95 -162z"/>
<path d="M5190 7051 c0 -6 38 -74 83 -153 46 -79 196 -336 332 -573 136 -236
278 -482 315 -545 36 -63 84 -145 105 -182 l39 -68 544 0 c299 0 541 3 539 8
-21 36 -217 377 -294 510 -53 92 -136 235 -183 317 -48 83 -122 211 -165 285
-43 74 -113 196 -156 270 l-78 135 -540 3 c-342 1 -541 -1 -541 -7z"/>
<path d="M9069 5683 c-18 -32 -155 -270 -306 -530 -150 -260 -273 -477 -273
-483 0 -7 223 -9 707 -8 l706 3 309 534 c169 293 308 535 308 537 0 2 -319 4
-709 4 l-710 0 -32 -57z"/>
<path d="M10457 5573 c-53 -93 -195 -339 -316 -548 l-219 -380 -729 -3 -728
-3 -302 -523 -302 -524 68 -118 c37 -66 117 -204 178 -309 169 -293 212 -367
318 -550 54 -93 172 -298 263 -455 90 -157 207 -359 260 -450 52 -91 109 -189
126 -217 l31 -53 1232 0 1233 0 23 37 c13 21 77 130 142 243 65 113 148 257
185 320 36 63 113 196 170 295 57 99 159 275 227 392 330 569 493 855 493 865
0 8 -415 734 -620 1083 -48 82 -278 479 -448 775 -52 91 -111 192 -131 225
l-36 60 -511 3 -511 2 -96 -167z m-225 -2315 c13 -24 76 -133 140 -243 206
-356 278 -483 278 -489 0 -3 -89 -160 -198 -349 -109 -188 -209 -361 -222
-384 l-24 -43 -450 0 -451 0 -220 382 c-121 209 -221 385 -223 389 -3 8 27 62
313 557 l129 222 452 0 452 0 24 -42z"/>
<path d="M9290 3253 c-13 -21 -112 -193 -222 -382 l-199 -343 122 -212 c68
-116 167 -289 222 -383 l99 -173 443 0 442 0 218 378 c120 207 220 380 222
384 2 4 -27 61 -65 125 -38 65 -113 195 -167 288 -54 94 -122 212 -152 263
l-54 92 -444 0 -443 0 -22 -37z"/>
<path d="M15257 9128 c-30 -51 -88 -151 -129 -223 -42 -71 -117 -201 -167
-289 l-92 -158 123 -212 c67 -116 166 -289 221 -383 l99 -173 443 0 442 0 218
378 c120 207 220 380 222 384 2 4 -47 94 -108 200 -62 106 -161 276 -220 378
l-107 185 -445 3 -446 2 -54 -92z"/>
</g>
</svg>
