<?xml version="1.0" standalone="no"?>
<!DOCTYPE svg PUBLIC "-//W3C//DTD SVG 20010904//EN"
 "http://www.w3.org/TR/2001/REC-SVG-20010904/DTD/svg10.dtd">
<svg version="1.0" xmlns="http://www.w3.org/2000/svg"
 width="89.000000pt" height="128.000000pt" viewBox="0 0 89.000000 128.000000"
 preserveAspectRatio="xMidYMid meet">
<metadata>
Created by potrace 1.11, written by Peter Selinger 2001-2013
</metadata>
<g transform="translate(0.000000,128.000000) scale(0.100000,-0.100000)"
fill="#000000" stroke="none">
<path d="M13 1252 c-5 -15 -8 -103 -6 -197 2 -93 3 -271 2 -395 -2 -401 0
-584 6 -622 l7 -37 400 0 c431 -1 450 1 461 51 2 13 4 288 3 613 l-1 589 -25
13 c-19 10 -124 13 -432 13 l-406 -1 -9 -27z m412 -294 c3 -13 9 -52 15 -88 5
-36 14 -80 19 -97 9 -32 9 -33 -19 -33 -16 0 -35 -2 -42 -5 -25 -10 -60 182
-42 229 4 10 18 16 35 16 22 0 30 -6 34 -22z m233 -16 c2 -13 -6 -47 -18 -74
-12 -29 -24 -83 -27 -124 l-6 -73 -28 23 c-16 14 -42 27 -58 31 l-29 6 44 110
c23 60 46 114 49 120 4 5 21 9 38 7 25 -2 33 -8 35 -26z m110 -241 l-3 -186
-63 -2 -64 -2 7 38 c4 25 1 52 -11 80 -20 51 -15 154 11 218 15 39 20 42 58
45 71 5 68 15 65 -191z m-423 139 c28 -81 27 -87 -4 -82 -17 2 -34 -2 -44 -12
-8 -9 -26 -16 -38 -16 -47 0 -75 -60 -50 -108 4 -9 11 -41 15 -69 l7 -53 -50
0 c-35 0 -51 4 -55 16 -8 21 -8 177 1 282 l6 83 100 -3 100 -3 12 -35z m22
-101 c7 -7 9 -25 6 -40 -4 -20 1 -36 16 -55 36 -45 20 -101 -26 -92 -37 7 -87
154 -63 183 15 18 51 20 67 4z m140 -21 c54 -13 117 -71 125 -113 9 -44 -10
-94 -54 -141 -97 -105 -247 -96 -319 20 -12 18 -18 43 -16 59 2 16 -4 45 -15
65 -31 62 -17 119 28 110 15 -3 25 -24 70 -160 9 -25 -33 -34 -57 -12 -11 10
-19 12 -19 5 0 -20 45 -35 68 -22 11 6 32 11 46 11 35 0 59 27 53 63 -4 27 -2
29 26 23 42 -8 43 -11 22 -51 -11 -19 -16 -37 -12 -41 4 -4 7 0 7 8 0 8 9 27
20 41 23 29 18 35 -52 61 -38 14 -48 23 -48 40 0 46 39 57 127 34z m293 -439
c0 -18 -2 -19 -15 -9 -11 9 -15 10 -15 1 0 -7 -8 -10 -17 -7 -10 3 -25 1 -33
-4 -12 -8 -12 -10 5 -11 11 -1 24 -1 29 0 5 1 -3 -14 -18 -34 -27 -35 -29 -64
-4 -66 7 0 3 -4 -9 -9 -13 -5 -23 -17 -23 -25 0 -13 6 -15 33 -10 46 10 49 14
32 38 -22 32 -18 69 10 90 29 21 27 25 30 -90 l1 -63 -357 0 -357 0 0 38 c0
20 -3 63 -7 94 -4 32 -5 64 -2 71 5 12 65 15 361 16 356 1 356 1 356 -20z"/>
</g>
</svg>
