<?xml version="1.0" standalone="no"?>
<!DOCTYPE svg PUBLIC "-//W3C//DTD SVG 20010904//EN"
 "http://www.w3.org/TR/2001/REC-SVG-20010904/DTD/svg10.dtd">
<svg version="1.0" xmlns="http://www.w3.org/2000/svg"
 width="128.000000pt" height="128.000000pt" viewBox="0 0 128.000000 128.000000"
 preserveAspectRatio="xMidYMid meet">
<metadata>
Created by potrace 1.11, written by Peter Selinger 2001-2013
</metadata>
<g transform="translate(0.000000,128.000000) scale(0.100000,-0.100000)"
fill="#000000" stroke="none">
<path d="M857 1256 c-126 -47 -207 -162 -207 -294 0 -75 14 -120 53 -179 80
-117 228 -164 368 -118 75 25 159 109 184 185 52 153 -7 309 -146 385 -44 24
-68 29 -134 32 -52 2 -93 -2 -118 -11z m215 -134 c9 -9 -67 -318 -82 -335 -4
-5 -26 -3 -49 3 -50 13 -50 20 -16 143 18 68 21 88 10 83 -7 -2 -30 -8 -49
-12 -33 -6 -36 -4 -36 17 0 50 11 69 39 69 14 0 44 11 66 25 40 24 96 28 117
7z"/>
<path d="M225 1237 c-90 -37 -131 -75 -169 -157 -43 -91 -34 -202 23 -285 161
-238 535 -122 535 165 0 110 -62 212 -159 263 -48 25 -183 34 -230 14z"/>
<path d="M217 616 c-126 -47 -207 -162 -207 -294 0 -75 14 -120 53 -179 80
-117 228 -164 368 -118 75 25 159 109 184 185 52 153 -7 309 -146 385 -44 24
-68 29 -134 32 -52 2 -93 -2 -118 -11z m165 -106 c85 -24 127 -95 93 -160 -12
-24 -35 -40 -88 -65 -46 -21 -66 -36 -57 -39 8 -3 35 -12 60 -19 44 -13 45
-14 43 -52 -2 -21 -5 -40 -7 -42 -2 -3 -46 7 -98 20 -51 14 -112 31 -135 37
-31 8 -43 16 -43 30 0 30 63 82 153 125 90 44 109 72 66 96 -20 10 -26 8 -46
-16 l-24 -28 -40 18 c-22 10 -42 22 -45 26 -2 4 10 24 27 43 34 39 69 46 141
26z"/>
</g>
</svg>
