<?xml version="1.0" standalone="no"?>
<!DOCTYPE svg PUBLIC "-//W3C//DTD SVG 20010904//EN"
 "http://www.w3.org/TR/2001/REC-SVG-20010904/DTD/svg10.dtd">
<svg version="1.0" xmlns="http://www.w3.org/2000/svg"
 width="177.000000pt" height="254.000000pt" viewBox="0 0 177.000000 254.000000"
 preserveAspectRatio="xMidYMid meet">
<metadata>
Created by potrace 1.11, written by Peter Selinger 2001-2013
</metadata>
<g transform="translate(0.000000,254.000000) scale(0.100000,-0.100000)"
fill="#000000" stroke="none">
<path d="M24 2495 c-18 -39 -20 -54 -12 -83 5 -19 7 -56 3 -81 -4 -25 -9 -137
-11 -249 -4 -159 -2 -207 8 -219 16 -20 22 -1031 6 -1103 -6 -25 -10 -94 -10
-155 1 -180 18 -527 28 -565 l10 -35 299 -3 c213 -2 306 1 322 9 16 9 33 9 67
0 30 -7 185 -11 468 -11 408 0 424 1 474 21 42 18 55 29 73 66 20 42 21 57 21
366 0 240 -4 345 -15 412 -13 75 -15 164 -9 535 3 245 10 452 15 462 5 9 9
154 9 321 l0 305 -47 24 -48 23 -465 0 c-256 -1 -476 -2 -490 -3 -14 -1 -171
1 -350 4 l-325 5 -21 -46z m1596 -96 c0 -5 -53 -9 -117 -10 -65 0 -393 -1
-728 -2 -336 -2 -615 -6 -621 -10 -13 -8 -27 17 -16 28 10 10 1482 3 1482 -6z
m-100 -1033 l0 -634 -122 -4 c-68 -2 -354 -2 -635 1 l-513 3 0 634 0 634 635
0 635 0 0 -634z m-172 -775 l252 -1 0 -180 0 -180 -30 0 c-23 0 -33 6 -39 23
-5 12 -7 25 -5 28 2 4 -5 14 -16 24 -12 10 -20 13 -20 7 0 -7 -5 -12 -10 -12
-7 0 -7 7 1 21 6 12 9 34 6 49 -5 21 0 33 19 51 13 13 22 29 19 37 -3 10 0 12
10 8 18 -6 50 37 40 54 -4 7 -16 10 -26 7 -11 -3 -19 -1 -19 5 0 5 -4 7 -9 3
-5 -3 -12 -2 -14 2 -3 5 -20 7 -39 7 -27 -1 -32 -5 -30 -20 2 -11 17 -29 33
-42 32 -26 37 -42 14 -42 -8 0 -15 -5 -15 -10 0 -6 -11 -15 -25 -20 -14 -5
-25 -14 -25 -20 0 -5 -8 -10 -17 -10 -16 -1 -16 -2 -3 -13 27 -22 49 -72 40
-87 -6 -8 -10 -10 -10 -5 -1 6 -8 -2 -16 -18 l-15 -27 -602 2 -602 3 -1 23
c-1 19 -1 19 3 2 2 -11 8 -18 13 -15 12 7 0 45 -15 45 -7 0 -16 8 -19 17 -10
26 -20 227 -12 256 6 26 6 26 124 29 64 2 272 2 462 1 190 -1 459 -2 598 -2z
m-448 -375 c0 -3 -4 -16 -10 -30 -6 -17 -6 -26 0 -26 6 0 10 6 11 13 0 10 2
10 6 0 10 -26 22 -12 12 13 -5 15 -7 29 -4 33 8 8 25 -20 25 -41 0 -10 4 -18
9 -18 5 0 7 9 4 20 -3 11 0 20 6 20 6 0 11 -9 11 -20 0 -33 45 -26 67 10 l17
30 97 0 c89 0 98 -2 104 -20 3 -11 3 -24 0 -30 -3 -5 3 -10 14 -10 10 0 21 4
23 9 2 5 9 2 16 -6 12 -12 -56 -14 -559 -11 -544 3 -574 4 -577 21 -9 48 -16
47 368 47 198 0 360 -2 360 -4z"/>
</g>
</svg>
